<svg width="51" height="51" viewBox="0 0 51 51" fill="none" xmlns="http://www.w3.org/2000/svg">
<path d="M25.5057 12.4242C18.2695 12.4242 12.4328 18.2622 12.4328 25.5C12.4328 32.7378 18.2695 38.5758 25.5057 38.5758C32.7418 38.5758 38.5785 32.7378 38.5785 25.5C38.5785 18.2622 32.7418 12.4242 25.5057 12.4242ZM25.5057 34.0009C20.8295 34.0009 17.0066 30.1886 17.0066 25.5C17.0066 20.8114 20.8181 16.9991 25.5057 16.9991C30.1933 16.9991 34.0047 20.8114 34.0047 25.5C34.0047 30.1886 30.1819 34.0009 25.5057 34.0009ZM42.1625 11.8894C42.1625 13.585 40.7972 14.9393 39.1133 14.9393C37.418 14.9393 36.0641 13.5736 36.0641 11.8894C36.0641 10.2051 37.4294 8.83951 39.1133 8.83951C40.7972 8.83951 42.1625 10.2051 42.1625 11.8894ZM50.8208 14.9848C50.6274 10.8993 49.6944 7.28043 46.7021 4.29884C43.7212 1.31725 40.1031 0.384079 36.0186 0.179237C31.8089 -0.0597456 19.1911 -0.0597456 14.9814 0.179237C10.9083 0.372699 7.29018 1.30587 4.29788 4.28746C1.30558 7.26905 0.383993 10.8879 0.179197 14.9734C-0.0597323 19.184 -0.0597323 31.8046 0.179197 36.0152C0.372616 40.1007 1.30558 43.7196 4.29788 46.7012C7.29018 49.6828 10.8969 50.6159 14.9814 50.8208C19.1911 51.0597 31.8089 51.0597 36.0186 50.8208C40.1031 50.6273 43.7212 49.6941 46.7021 46.7012C49.683 43.7196 50.616 40.1007 50.8208 36.0152C51.0597 31.8046 51.0597 19.1954 50.8208 14.9848ZM45.3823 40.5331C44.4949 42.7636 42.7769 44.482 40.5355 45.3811C37.1791 46.7125 29.2148 46.4053 25.5057 46.4053C21.7966 46.4053 13.8209 46.7012 10.4759 45.3811C8.2459 44.4934 6.52789 42.775 5.62906 40.5331C4.29788 37.176 4.60508 29.2099 4.60508 25.5C4.60508 21.7901 4.30926 13.8126 5.62906 10.4669C6.51651 8.23636 8.23452 6.51796 10.4759 5.61893C13.8323 4.28746 21.7966 4.59472 25.5057 4.59472C29.2148 4.59472 37.1905 4.29884 40.5355 5.61893C42.7655 6.50658 44.4835 8.22498 45.3823 10.4669C46.7135 13.824 46.4063 21.7901 46.4063 25.5C46.4063 29.2099 46.7135 37.1874 45.3823 40.5331Z" fill="white" fill-opacity="0.8"/>
</svg>
