<svg width="62" height="51" viewBox="0 0 62 51" fill="none" xmlns="http://www.w3.org/2000/svg">
<path d="M55.6271 12.7101C55.6664 13.2679 55.6664 13.8258 55.6664 14.3836C55.6664 31.3968 42.8809 51 19.5128 51C12.3135 51 5.62567 48.8882 0 45.2227C1.02288 45.3422 2.00629 45.382 3.06853 45.382C9.00881 45.382 14.4772 43.3501 18.844 39.8837C13.2576 39.7641 8.57614 36.0586 6.96316 30.9586C7.75003 31.078 8.53678 31.1578 9.36301 31.1578C10.5038 31.1578 11.6448 30.9983 12.7069 30.7196C6.88457 29.5241 2.51767 24.3445 2.51767 18.089V17.9297C4.20924 18.886 6.17641 19.4836 8.26129 19.5632C4.83868 17.2522 2.59638 13.3078 2.59638 8.84522C2.59638 6.45464 3.22571 4.26324 4.3273 2.35072C10.5824 10.1601 19.9848 15.26 30.5279 15.8179C30.3312 14.8617 30.2131 13.8657 30.2131 12.8695C30.2131 5.77728 35.8782 0 42.92 0C46.5787 0 49.8832 1.5539 52.2043 4.06406C55.0761 3.50628 57.8299 2.43044 60.2691 0.956257C59.3248 3.94461 57.3185 6.45476 54.6828 8.0484C57.2399 7.76963 59.7183 7.05229 62 6.05629C60.2693 8.60619 58.1055 10.8772 55.6271 12.7101Z" fill="white" fill-opacity="0.8"/>
</svg>
