<svg width="67" height="51" viewBox="0 0 67 51" fill="none" xmlns="http://www.w3.org/2000/svg">
<path d="M65.6 7.97977C64.8294 4.83876 62.5591 2.36499 59.6765 1.52548C54.4515 0 33.5 0 33.5 0C33.5 0 12.5486 0 7.32354 1.52548C4.44091 2.36513 2.17059 4.83876 1.40003 7.97977C0 13.673 0 25.5515 0 25.5515C0 25.5515 0 37.43 1.40003 43.1233C2.17059 46.2643 4.44091 48.635 7.32354 49.4745C12.5486 51 33.5 51 33.5 51C33.5 51 54.4514 51 59.6765 49.4745C62.5591 48.635 64.8294 46.2643 65.6 43.1233C67 37.43 67 25.5515 67 25.5515C67 25.5515 67 13.673 65.6 7.97977ZM26.6477 36.3363V14.7668L44.159 25.5518L26.6477 36.3363Z" fill="black" fill-opacity="0.8"/>
</svg>
